<?xml version="1.0" encoding="utf-8"?>
<!-- Generator: Adobe Illustrator 19.0.0, SVG Export Plug-In . SVG Version: 6.00 Build 0)  -->
<svg version="1.1" id="svg" xmlns="http://www.w3.org/2000/svg" xmlns:xlink="http://www.w3.org/1999/xlink" x="0px" y="0px"
	 viewBox="-299 2427.1 400 147.9" style="enable-background:new -299 2427.1 400 147.9;" xml:space="preserve">
<style type="text/css">
	.st0{fill:#0C2454;}
	.st1{fill:#B59630;}
	.st2{fill:#95A1B3;}
	.st3{fill:#8E7636;}
	.st4{fill:#16005B;}
	.st5{font-family:'Modern-Regular';}
	.st6{font-size:37px;}
</style>
<g id="svgg">
	<path id="path0" class="st0" d="M-265.7,2437.9l0,5.1l0.5-0.9c2.1-3.7,5.2-5.8,8.8-6.1c2.8-0.2,2.8-0.3,1,3.7
		c-1.7,3.7-3.9,5.8-8.4,8l-2,0.9l0.1,34.2c0,24.6,0.1,34.7,0.3,35.9c0.3,2.3,0.5,3.8,1.4,7.6c0.2,1.1,1.2,4.4,1.5,5.1
		c0.1,0.2,0.5,1.2,0.8,2.2c0.7,1.9,2.4,5.3,3.3,6.8c1.9,3.2,2.4,3.9,2.7,3.8c0.6-0.3,1.1-0.1,2.1,1c2.1,2,4.5,5.5,5.4,7.7
		c0.6,1.4,5.8,5.7,9.4,7.7c0.4,0.2,1.2,0.7,1.9,1.1c1.1,0.6,3.6,1.9,5.7,2.8c1.5,0.7,4.6,1.6,7.9,2.5c2,0.5,4.7,1,7.3,1.3
		c2.9,0.3,10.2,0.3,12.8,0c4-0.5,4.6-0.6,7.9-1.5c3-0.8,4.6-1.4,6.8-2.4c0.4-0.2,1.2-0.5,1.9-0.9c6.5-2.9,14.1-8.5,15.7-11.6
		c2-3.8,5.4-7.8,6.6-7.8c0.6,0,1.4-1.1,3.4-4.6c0.8-1.4,2.8-5.8,2.8-6.1c0-0.1,0.1-0.3,0.1-0.3c0.5-0.5,2.4-7.1,2.9-9.8
		c0.9-5.4,0.9-2.1,0.9-39.7c0-18.9,0-34.5,0-34.7c-0.1-0.3-0.6-0.6-1.9-1.2c-4.8-2.3-6.7-4.4-8.7-9.1c-0.2-0.5-0.4-1-0.5-1.2
		c-0.6-1.3-0.3-1.5,2-1.3c3.3,0.2,6.3,2.1,8.3,5.2c0.9,1.3,0.9,1.4,0.8-4.1l0-4.3l-55.8,0l-55.8,0L-265.7,2437.9 M-185.5,2481.6l0,8
		h-5.8h-5.8v-2.6v-2.6l-2,0l-2,0l0,14.9l0,14.9h2.3h2.3l0,5.5l0,5.5l-13.7,0c-7.5,0-13.8,0-14,0l-0.4-0.1v-5.4c0-4.8,0-5.4,0.3-5.5
		c0.1-0.1,1.2-0.1,2.3-0.1h2.1v-14.9v-14.9h-2h-2v2.6v2.6l-5.8,0l-5.8,0l0-7.8c0-4.3,0-7.9,0-8c0.1-0.2,5.2-0.2,25.1-0.2l25,0
		L-185.5,2481.6"/>
	<path id="path2" class="st1" d="M-258,2436.4c-2.2,0.4-5.7,3.4-7.1,6c-0.2,0.4-0.5,0.8-0.6,0.9c-0.1,0.1-0.4,0.5-0.5,0.8
		c-0.4,0.8-1.3,2.4-1.6,2.8c-0.2,0.2-1,1.1-1.7,2.1c-0.8,0.9-1.5,1.7-1.5,1.8c-0.2,0.2-1.4,1.8-2.2,2.7c-0.4,0.6-0.8,1.1-0.9,1.2
		c-0.3,0.4-2.3,3.3-2.7,4c-0.8,1.2-1,0.8-0.6-1.2c1.3-7.1,0.9-17.9-0.6-18.3c-1-0.3-3.2,3.8-4.2,7.8c-0.6,2.7-0.7,6.5,0,8.8
		c0.7,2.5,1.6,4.6,2.4,5.8c0.6,0.8,0.6,0.9-0.2,2.3c-0.9,1.7-1.8,3.4-2.3,4.5c-0.2,0.5-0.6,1.4-0.9,2c-1,2.3-3.1,8.2-3.1,8.9
		c0,1-0.4-0.3-0.5-1.8c-0.2-2.8-0.5-5.7-0.6-7.8c-0.3-3.5-1.2-4.6-2.8-3c-3.8,3.6-2.8,13.4,1.7,17.8l0.9,0.8l-0.2,1.3
		c-0.5,3.3-0.6,4.7-0.5,9c0.1,5,0.3,6.5,1.1,10.1c0.4,1.9,0.2,1.9-1.1-0.2c-3.5-5.1-6-7.5-8.9-8.4c-1.5-0.4-1.7,0.3-0.9,2.7
		c1.9,5.6,6.2,9.9,11.3,11.6l1.2,0.4l0.6,1.8c1.5,4.5,4.6,11.3,6.6,14.7c0.9,1.5,0.8,1.8-0.3,0.9c-3.9-3.1-8.8-5.1-10.7-4.3
		c-2.1,0.9,2.5,7.2,6.5,9c2.5,1.1,6.2,1.5,7.8,0.9c0.6-0.2,0.4-0.5,2.9,3c3,4.2,5.5,7.1,8.7,10.3c1.1,1.1,1.9,2,1.8,2
		c-0.2-0.1-1-0.3-1.8-0.6c-4.5-1.6-11.8-1.7-11.3-0.2c0.1,0.4,2.5,2.5,2.8,2.5c0.1,0,0.4,0.2,0.7,0.4c3.4,2.3,10,2.9,13.5,1.4
		c0.4-0.2,0.6,0,2.4,1.2c4.2,2.9,8.3,4.8,12.8,6.1c1.1,0.3,4.5,0.5,4.4,0.3c-0.1-0.1-0.5-0.3-1-0.4c-0.8-0.2-3-0.9-3.7-1.2
		c-0.2-0.1-0.5-0.2-0.8-0.3c-0.5-0.1-2.1-0.8-2.7-1.1c-0.2-0.1-0.4-0.4-0.5-0.6c-0.1-1.2-0.6-3.3-0.9-3.7c-0.2-0.2-0.3-0.5-0.3-0.6
		c0-0.6-2.5-4.6-3.9-6.2c-3.4-4-4.5-3.2-2.6,2.1c0.6,1.8,1.5,3.6,2.5,4.9c1.2,1.7,1.2,1.6,0.6,1.4c-1.9-0.8-6.6-4.3-10.2-7.6
		l-1.7-1.5l-0.1-2.3c-0.3-7.1-4.3-15.9-6.4-14.2c-0.8,0.6,0.2,6.9,1.6,10.1c0.3,0.7,0.4,1.4,0.1,1c0,0-0.4-0.4-0.7-0.9
		c-2.9-3.6-6.8-9.7-9.7-15.1c-1.2-2.2-1.2-2.4-0.6-3.4c0.8-1.2,1.3-2.6,2-5c0.4-1.4,0.4-7.8,0.1-9.5c-0.1-0.6-0.3-1.6-0.5-2.3
		c-0.6-3-1.3-3.1-2.8-0.2c-1.7,3.3-2.2,7.7-1.5,12.1c0.3,1.9-0.5,0.1-1.9-4c-2-6.2-3.5-14.3-2.7-14.3c0.7,0,3.6-2.9,4.9-4.8
		c2.8-4.2,5-11.7,3.6-12.1c-0.8-0.2-4.5,4.1-6.5,7.4c-0.6,1-2,4-2,4.2c0,0.1-0.1,0.3-0.2,0.3c-0.4,0,0-5.3,0.7-8.9
		c1.1-5.3,3.4-12.1,4-11.8c1,0.4,5-0.9,7.4-2.5c3.9-2.5,8.6-8,7.7-8.9c-0.5-0.5-5.3,1.3-8.3,3.2c-0.4,0.2-0.7,0.4-0.8,0.4
		c-0.1,0-1.9,1.3-3.1,2.1c-1.3,1,1.7-4.3,5.7-10c3.3-4.7,5.6-7.4,6.8-8c0.4-0.2,1-0.5,1.2-0.6c0.2-0.1,0.5-0.2,0.6-0.2
		s0.2-0.1,0.2-0.2c0-0.1,0.1-0.2,0.2-0.2c1.3,0,6.1-3.4,7.3-5.3c0.2-0.4,0.5-0.7,0.5-0.8c0.5-0.5,2.3-4.6,2.3-5.2
		C-254.3,2436.3-256.7,2436.2-258,2436.4 M-165.1,2436.7c0.1,0.5,0.6,1.8,1.4,3.4c1.6,3.3,3.6,5.2,7.2,7c0.8,0.4,1.5,0.8,1.7,0.9
		c0.2,0.1,0.9,0.5,1.6,0.8c0.7,0.4,1.5,0.9,1.7,1.2c0.7,0.8,3.5,4.2,4,5c0.3,0.4,0.6,0.7,0.6,0.8c0.1,0.1,0.7,1,1.5,2.1
		s1.4,2,1.4,2.1c0.4,0.5,2.1,3.4,3.1,5.1c1,1.8,1.1,2.3,0.5,1.8c-2.1-1.5-3.1-2.2-3.9-2.6c-0.6-0.3-1.4-0.8-1.8-1
		c-1.5-0.8-5.3-2.3-5.8-2.3c-2.6,0,3.5,7.2,8.3,9.8c2.2,1.2,4.9,2,6.2,1.9c0.5-0.1,2,3.7,3.2,8c0.4,1.4,0.5,1.9,0.9,4.1
		c0.3,1.7,0.8,5.4,0.9,7.2c0.1,2.1,0,2.2-0.6,0.5c-1.2-3-4-7.2-6.8-10c-1.5-1.5-2.4-0.9-1.8,1.2c0.1,0.3,0.3,1.1,0.4,1.8
		c1.3,5.4,4.6,10.7,7.9,12.7c0.5,0.3,0.9,0.7,0.9,0.8c0,0.9-0.6,4.8-1.1,6.9c-0.8,3.7-2.9,10.5-3.4,11c-0.1,0.1-0.1,0.3-0.1,0.5
		s-0.1,0.3-0.2,0.3c-0.1,0-0.1-0.2-0.1-0.6c0.8-4.7,0-10.1-2-13.4c-1-1.6-1.6-1.6-2,0.1c-1.7,6.9-1.2,14,1.3,17.7
		c0.7,1,0.7,1.2-0.6,3.7c-2.5,4.8-5.2,9-8.7,13.8c-1.7,2.3-2.1,2.5-1.4,1c2-4.9,2.5-10.6,0.9-10.3c-0.7,0.2-2.9,2.7-2.9,3.3
		c0,0-0.2,0.5-0.4,1c-0.7,1.5-0.8,1.8-1.2,3.2c-0.7,2.5-1.5,8.2-1.2,8.7c0.2,0.3-3.2,3.4-6,5.5c-1.6,1.3-5.7,4-6,4
		c-0.3,0-0.3-0.2,0-0.5c0.7-0.6,2.6-3.9,3.2-5.7c1.8-5.3,0.9-6.3-2.4-2.5c-3,3.5-5,7.2-5.3,10.1c-0.1,1.2-0.1,1.1-2.3,2
		c-1.7,0.7-2.4,0.9-5.7,2l-1.1,0.3l2.2-0.1c4.3-0.1,10.4-2.7,15.9-6.7l1.4-1l1.2,0.4c4.9,1.6,10.6,0.4,14.9-3.1
		c2.4-1.9,2-2.5-1.7-2.5c-3.3,0-5.8,0.4-8.7,1.4c-0.7,0.2-1.3,0.4-1.4,0.4c0,0,1.1-1.2,2.5-2.6c3.4-3.5,5.7-6.2,9.5-11.6l0.8-1.1
		l0.8,0.1c4.1,0.7,9.2-0.9,11.6-3.8c1.6-1.9,3.2-4.8,3-5.6c-0.2-0.9-2.5-1-4.3-0.3c-1.5,0.6-4.9,2.5-6.7,3.8c-1.4,1.1-1.5,1.1-1,0.1
		c1.7-3.1,3-5.6,4.1-8.1c0.2-0.6,0.5-1.2,0.7-1.5c0.4-0.8,1.2-2.9,1.7-4.3c0.2-0.7,0.5-1.4,0.6-1.6c0.1-0.2,0.2-0.7,0.4-1.1
		c0.2-0.7,0.2-0.7,1.3-1c4.7-1.3,9.3-5.7,11.2-10.7c1.4-3.6,0.9-4.5-1.8-3.2c-2.7,1.3-5.3,4-8.4,9c-0.7,1.1-0.9,1.1-0.6-0.1
		c1.3-6,1.7-12.9,1-17.4c-0.1-0.6-0.2-1.6-0.4-2.4l-0.2-1.4l0.7-0.6c4.6-3.8,5.8-14.7,1.9-18c-1.7-1.5-2.6-0.4-2.9,3.7
		c-0.1,1.3-0.2,3.1-0.3,4.1c-0.1,1-0.2,2.5-0.3,3.5c-0.1,2-0.2,2-1-0.4c-0.5-1.5-1.2-3.6-1.4-4.2c-0.1-0.2-0.4-0.9-0.6-1.6
		c-0.8-2.2-2.3-5.1-4-8.3l-0.5-0.9l0.4-0.6c0.8-1.3,1.8-3.5,2.1-4.4c0.2-0.5,0.3-1.1,0.4-1.4c1.2-4,0.4-10.4-2-14.6
		c-2.5-4.6-3.5-3-3.5,6.1c0,4.9,0,5.5,0.7,10.1c0.2,1.5,0.2,2.1,0,1.8c0,0-0.7-1-1.5-2.2c-1.7-2.5-3.9-5.4-5.7-7.5
		c-0.7-0.8-1.7-2-2.1-2.5c-0.5-0.6-1.2-1.8-1.7-2.6c-0.5-0.9-1-1.7-1.1-1.9c-0.1-0.2-0.4-0.5-0.6-0.9c-1-1.8-3.3-3.9-5.2-4.7
		c-0.4-0.2-0.8-0.4-1-0.5c-0.2-0.1-1.2-0.2-2.3-0.3l-2-0.1L-165.1,2436.7 M-262.2,2441.4c-0.4,0.4-0.7,0.2-0.3-0.3
		c0.3-0.3,0.4-0.3,0.4-0.2C-262,2441.1-262.1,2441.3-262.2,2441.4 M-157.2,2440.9c0.4,0.3,0.6,0.9,0.2,0.7c-0.2-0.1-0.4-0.3-0.5-0.5
		C-157.7,2440.8-157.6,2440.7-157.2,2440.9"/>
	<path id="path3" class="st2" d="M-265.8,2432.8c-0.1,0.4-0.2,10.8,0,10.7c0.1,0,0.1-2.5,0.1-5.4L-265.8,2432.8h55.9l55.8,0l0.1,5.1
		l0.1,5.1l0-5.2l0-5.2l-55.9,0C-254.4,2432.6-265.7,2432.7-265.8,2432.8 M-141.8,2439c-0.2,0.1-0.4,0.4-0.4,0.5c0,0.2,0,0.2,0.1,0
		c0.1-0.1,0.3-0.4,0.4-0.5C-141.2,2438.7-141.3,2438.7-141.8,2439 M-278.9,2439.2c-0.3,0.3-0.5,0.7-0.4,0.7c0,0,0.2-0.2,0.4-0.5
		C-278.5,2438.9-278.5,2438.8-278.9,2439.2 M-140.7,2439.4c0.2,0.3,0.6,0.6,0.8,0.9c0.3,0.4,0.3,0.4,0-0.1c-0.3-0.6-0.9-1.3-1.1-1.3
		C-141.1,2438.9-140.9,2439.2-140.7,2439.4 M-277.1,2441c0.1,0.6,0.2,0.7,0.2,0.3c0-0.2-0.1-0.4-0.2-0.6
		C-277.1,2440.6-277.1,2440.7-277.1,2441 M-276.6,2444.2c0,0.4,0,0.5,0.1,0.3c0-0.2,0-0.5,0-0.7
		C-276.6,2443.7-276.6,2443.8-276.6,2444.2 M-142.9,2447.4c0,1.8,0,2.6,0.1,1.7c0-0.9,0-2.4,0-3.3
		C-142.9,2444.8-142.9,2445.5-142.9,2447.4 M-137.5,2446.1c0,0.1,0.1,0.4,0.1,0.6c0.1,0.2,0.1,0.2,0.1,0.1c0-0.1-0.1-0.4-0.1-0.6
		C-137.4,2446-137.5,2446-137.5,2446.1 M-276.4,2447.4c0,0.8,0,1.1,0.1,0.7c0-0.4,0-1,0-1.4S-276.4,2446.7-276.4,2447.4
		 M-150.8,2447.9c0.3,0.3,0.6,0.6,0.6,0.6c0,0-0.2-0.3-0.5-0.6c-0.3-0.3-0.6-0.6-0.6-0.6C-151.4,2447.3-151.1,2447.5-150.8,2447.9
		 M-137,2448.8c0,0.4,0,0.6,0.1,0.4c0-0.2,0-0.5,0-0.8C-136.9,2448.2-137,2448.4-137,2448.8 M-282.6,2449c0,0.4,0,0.5,0.1,0.3
		c0-0.2,0-0.5,0-0.7C-282.6,2448.5-282.6,2448.7-282.6,2449 M-269.7,2448.9c-1,1.1-1.2,1.4-1.1,1.4c0.1,0,0.4-0.4,0.9-0.9
		C-269.1,2448.4-268.9,2448.1-269.7,2448.9 M-266.2,2448.8c-0.1,0.1,0,0.1,0.2,0.1c0.2-0.1,0.3,3.2,0.3,33.3c0,22,0.1,34,0.2,35.1
		c0.3,3,0.4,3.6,0.4,3.3c0-0.2-0.1-1.4-0.2-2.8c-0.2-2.2-0.3-6.8-0.3-35.8C-265.7,2447.5-265.7,2447.8-266.2,2448.8 M-154.1,2483.3
		c0,19.1-0.1,35-0.2,35.5c-0.1,0.7-0.1,0.7,0.1,0.3c0.2-0.3,0.2-7.8,0.3-35.4c0-34.7,0.1-35,0.4-34.9c0.2,0,0.3,0,0.2-0.1
		c-0.1-0.1-0.2-0.2-0.4-0.2C-154,2448.6-154,2449.5-154.1,2483.3 M-276.6,2450.5c0,0.4,0,0.5,0.1,0.3c0-0.2,0-0.5,0-0.7
		C-276.6,2450-276.6,2450.2-276.6,2450.5 M-150.2,2451.7c0.2,0.3,0.4,0.5,0.5,0.5C-149.6,2452.1-149.8,2451.9-150.2,2451.7l-0.4-0.5
		L-150.2,2451.7 M-142.8,2451.9c0,0.3,0,0.5,0.1,0.3c0-0.2,0-0.4,0-0.6C-142.8,2451.5-142.8,2451.6-142.8,2451.9 M-136.8,2452.6
		c0,0.3,0,0.5,0.1,0.3c0-0.2,0-0.4,0-0.6C-136.8,2452.2-136.8,2452.3-136.8,2452.6 M-282.6,2453.5c0,0.4,0,0.5,0.1,0.3
		c0-0.2,0-0.5,0-0.7C-282.6,2453-282.6,2453.2-282.6,2453.5 M-137,2453.9c0,0.3,0,0.5,0.1,0.3c0-0.2,0-0.4,0-0.6
		C-136.9,2453.5-137,2453.6-137,2453.9 M-277,2454.5c0,0.2-0.1,0.7-0.1,1l-0.1,0.6l0.2-0.6C-276.9,2455.2-276.8,2454.7-277,2454.5
		l0-0.4L-277,2454.5 M-282.2,2455.9c0.1,0.6,0.2,0.7,0.2,0.3c0-0.2-0.1-0.4-0.2-0.6C-282.3,2455.4-282.3,2455.5-282.2,2455.9
		 M-277.5,2458.5c0,0.4,0,0.8,0.1,0.8s0.1-0.3,0.1-0.6C-277.4,2457.7-277.5,2457.6-277.5,2458.5 M-142.1,2459
		c-0.1,0.2-0.1,0.3,0,0.4c0.2,0.2,0.3-0.1,0.2-0.4C-141.9,2458.7-142,2458.7-142.1,2459 M-275.3,2459.5c-0.6,1-0.6,1.1-0.3,0.7
		c0.3-0.4,0.6-0.9,0.5-0.9C-275.1,2459.3-275.2,2459.4-275.3,2459.5 M-267.6,2460.9c0.5,0.1,0.7,0.4,0.8,0.8c0,0.3,0,0.3,0.1,0.1
		c0.1-0.4-0.4-1-0.9-0.9C-267.9,2460.8-267.9,2460.8-267.6,2460.9 M-152.6,2461.1c-0.2,0.2-0.3,0.7,0,0.9c0.1,0.1,0.1-0.1,0.1-0.2
		c0-0.2,0-0.4,0.1-0.6C-152.3,2460.9-152.3,2460.9-152.6,2461.1 M-142.2,2465.6c0.2,0.2,0.8,0.6,1.2,0.9c0.9,0.7,1.4,0.8,1.1,0.3
		c-0.2-0.4-0.4-0.4-0.2-0.1c0.1,0.3,0,0.3-1.1-0.6c-0.4-0.3-0.9-0.6-1.1-0.7C-142.5,2465.3-142.5,2465.3-142.2,2465.6 M-131,2465.8
		c-0.2,0.1-0.1,0.1,0.3,0.1c0.6-0.1,0.7-0.2,0.3-0.2C-130.6,2465.6-130.9,2465.7-131,2465.8 M-148.8,2466.9c0.6,0.6,1.2,1.2,1.2,1.2
		c0,0-0.4-0.5-1.1-1.2c-0.6-0.6-1.2-1.2-1.2-1.2C-149.9,2465.8-149.4,2466.3-148.8,2466.9 M-271.6,2467.7l-0.7,0.7L-271.6,2467.7
		c0.4-0.3,0.8-0.6,0.8-0.7C-270.8,2466.9-271,2467-271.6,2467.7 M-147.2,2468.3c0,0,0.3,0.3,0.7,0.6c0.4,0.3,0.7,0.5,0.7,0.4
		c0,0-0.3-0.3-0.7-0.6C-146.9,2468.5-147.2,2468.3-147.2,2468.3 M-287.3,2469.5c0,0.6,0.1,1.5,0.1,2c0.1,0.6,0.1,0.3,0-1
		C-287.2,2468.4-287.3,2467.7-287.3,2469.5 M-132.3,2470.2c0,0.8,0,1.2,0.1,0.8c0-0.4,0-1.1,0-1.5
		C-132.2,2469.1-132.3,2469.4-132.3,2470.2 M-292.6,2473.3c0,0.3,0,0.5,0.1,0.3c0-0.2,0-0.4,0-0.6S-292.6,2473-292.6,2473.3
		 M-210.8,2473.6l25,0v7.9v7.9h-5.6h-5.6l0-2.5l0-2.5l-2.1,0l-2.1,0l2.1,0.1l2.1,0.1v2.6v2.6h5.8h5.8l0-8l0-8l-25.1,0l-25.1,0
		L-210.8,2473.6 M-286.9,2474.9c0.1,0.7,0.1,1.4,0.2,1.4c0.1,0.1,0-1.2-0.1-2C-286.9,2473.7-287,2473.9-286.9,2474.9 M-235.8,2481.6
		l0,7.9l5.8,0l5.8,0v-2.6v-2.6h2h2v14.9v14.9h-2.1c-1.1,0-2.2,0-2.3,0.1c-0.3,0.1-0.4,10.9-0.1,10.9c0.1,0,0.2-1.9,0.2-5.4v-5.4
		l2.3,0l2.3,0v-15v-15h-2.2h-2.2l0,2.5l0,2.5h-5.7h-5.7L-235.8,2481.6l0-7.9L-235.8,2481.6 M-132.6,2474.9c0,0.3,0,0.5,0.1,0.3
		c0-0.2,0-0.4,0-0.6C-132.6,2474.5-132.6,2474.6-132.6,2474.9 M-292.5,2475.4c0,0.3,0.1,0.6,0.2,0.8c0.1,0.2,0.1,0.1,0-0.4
		C-292.4,2474.9-292.5,2474.7-292.5,2475.4 M-127.1,2475.8c0,0.3,0,0.5,0.1,0.3c0-0.2,0-0.4,0-0.6
		C-127.1,2475.3-127.1,2475.5-127.1,2475.8 M-132.8,2476.4c0,0.4,0,0.5,0.1,0.3c0-0.2,0-0.5,0-0.7
		C-132.8,2475.8-132.8,2476-132.8,2476.4 M-286.6,2477.9c0,0.3,0,0.5,0.1,0.3s0-0.4,0-0.6C-286.6,2477.5-286.6,2477.6-286.6,2477.9
		 M-127.6,2477.9c-0.1,0.2-0.1,0.5,0,0.5c0,0,0.1-0.1,0.2-0.4c0.1-0.2,0.1-0.5,0-0.5C-127.4,2477.5-127.5,2477.6-127.6,2477.9
		 M-133,2478.6c0,0.2-0.1,0.3-0.2,0.3c-0.1-0.1-0.1,0.1,0,0.2C-132.9,2479.5-132.7,2479.1-133,2478.6
		C-132.9,2478.3-133,2478.3-133,2478.6 M-279.3,2481.8l-0.5,0.5L-279.3,2481.8c0.4-0.2,0.7-0.5,0.7-0.5c0,0,0,0-0.1,0
		S-279,2481.5-279.3,2481.8 M-289.8,2482.8c0.1,0.2,0.3,0.4,0.5,0.5c0.2,0.1,0.1,0-0.1-0.3C-289.9,2482.4-290.1,2482.3-289.8,2482.8
		 M-280.5,2483.1l-0.6,0.6L-280.5,2483.1c0.4-0.3,0.7-0.5,0.7-0.6C-279.8,2482.4-280,2482.5-280.5,2483.1 M-131.6,2484.8
		c-0.1,0.1-0.2,0.4-0.2,0.7l0,0.5l0.1-0.5c0-0.3,0.2-0.6,0.2-0.7C-131.2,2484.6-131.4,2484.6-131.6,2484.8 M-286.5,2486.3
		c0,0.3,0,0.5,0.1,0.3c0-0.2,0-0.4,0-0.6C-286.4,2485.8-286.5,2486-286.5,2486.3 M-133.1,2486.3c0,0.3,0,0.5,0.1,0.3
		c0-0.2,0-0.4,0-0.6C-133.1,2485.8-133.1,2486-133.1,2486.3 M-283.5,2486.7c-0.4,0.6-0.6,0.9-0.5,0.9c0,0,0.3-0.3,0.5-0.7
		C-282.9,2486.2-283,2486-283.5,2486.7 M-288.1,2488.4c0,0.4,0,0.5,0.1,0.3c0-0.2,0-0.5,0-0.7S-288.1,2488-288.1,2488.4
		 M-286.8,2488.9c0,0.4,0,0.5,0.1,0.3c0-0.2,0-0.5,0-0.7S-286.8,2488.5-286.8,2488.9 M-132.6,2489.8c0,0.3,0,0.5,0.1,0.3
		c0-0.2,0-0.4,0-0.6C-132.6,2489.3-132.6,2489.5-132.6,2489.8 M-287,2490.2c0,0.4,0,0.5,0.1,0.3c0-0.2,0-0.5,0-0.7
		C-286.9,2489.7-287,2489.8-287,2490.2 M-131.1,2491.7c0,0.4,0,0.5,0.1,0.3c0-0.2,0-0.5,0-0.7
		C-131.1,2491.2-131.1,2491.3-131.1,2491.7 M-288.4,2494.6c0,1.6,0,2.3,0.1,1.5c0-0.8,0-2.1,0-2.9
		C-288.4,2492.4-288.4,2493-288.4,2494.6 M-132.5,2492.5c0,0.2-0.1,0.4-0.2,0.3c-0.2-0.1-0.2,0.1,0.1,0.5c0.2,0.3,0.2,0.3,0.2-0.5
		c0-0.4,0-0.8-0.1-0.8C-132.5,2492.1-132.5,2492.3-132.5,2492.5 M-284,2496.2l-1.1,1.1L-284,2496.2c1.1-1,1.2-1.1,1.1-1.1
		C-282.9,2495.1-283.4,2495.6-284,2496.2 M-135.6,2496.3c0.5,0.5,0.9,0.8,0.9,0.8s-0.3-0.4-0.7-0.8c-0.5-0.5-0.9-0.8-0.9-0.8
		S-136,2495.8-135.6,2496.3 M-121.4,2496.8c0.6,0.2,0.8,0.5,0.6,1.3c-0.1,0.4-0.1,0.4,0.1,0.1c0.4-0.8-0.1-1.6-0.9-1.6
		C-121.8,2496.6-121.8,2496.7-121.4,2496.8 M-298.8,2497.6c0,0.3,0,0.5,0.1,0.3c0-0.2,0-0.4,0-0.6
		C-298.8,2497.2-298.8,2497.3-298.8,2497.6 M-131.1,2497.9c0,0.4,0,0.5,0.1,0.3c0-0.2,0-0.5,0-0.7
		C-131.1,2497.3-131.1,2497.5-131.1,2497.9 M-133.3,2498.1c0.2,0.2,0.5,0.3,0.5,0.4c0.1,0,0.1,0.2,0.2,0.5l0.1,0.5l0-0.6
		c0-0.4-0.1-0.6-0.6-0.9l-0.6-0.3L-133.3,2498.1 M-286.8,2499.9c0,0.3,0,0.5,0.1,0.3c0-0.2,0-0.4,0-0.6
		C-286.8,2499.5-286.8,2499.6-286.8,2499.9 M-288.1,2500.8c0,0.4,0,0.6,0.1,0.4c0-0.2,0-0.5,0-0.8
		C-288.1,2500.2-288.1,2500.4-288.1,2500.8 M-287.8,2503.2c0,0.2,0.1,0.5,0.1,0.8c0.1,0.3,0.1,0.3,0.1,0.1c0-0.2-0.1-0.5-0.1-0.8
		C-287.8,2503-287.8,2502.9-287.8,2503.2 M-131.8,2503.6c0,0.3,0,0.5,0.1,0.3c0-0.2,0-0.4,0-0.6
		C-131.8,2503.2-131.8,2503.3-131.8,2503.6 M-278,2503.8c0,0.1,0.1,0.4,0.1,0.6c0.1,0.2,0.1,0.2,0.1,0.1c0-0.1-0.1-0.4-0.1-0.6
		C-277.9,2503.7-278,2503.6-278,2503.8 M-133.6,2504.9c-0.1,0.2-0.1,0.5,0,0.5c0,0,0.1-0.1,0.2-0.4c0.1-0.2,0.1-0.5,0-0.5
		C-133.4,2504.5-133.5,2504.6-133.6,2504.9 M-287.3,2505.7c0,0.2,0.1,0.4,0.2,0.6c0.1,0.2,0.1,0.1,0.1-0.3
		C-287.2,2505.4-287.3,2505.3-287.3,2505.7 M-285.6,2506.7c0,0.2,0.1,0.5,0.1,0.7c0.2,0.4,0.2,0,0-0.6
		C-285.6,2506.4-285.6,2506.4-285.6,2506.7 M-277,2511.4c0,1.2-0.1,2.5-0.1,2.8l-0.1,0.7l0.2-0.7
		C-276.9,2513.8-276.8,2512.6-277,2511.4l0-2.2L-277,2511.4 M-142.6,2511.7c0,0.7,0,1,0.1,0.6c0-0.4,0-1,0-1.3
		C-142.6,2510.6-142.6,2511-142.6,2511.7 M-137.1,2512.5c0,1,0,1.4,0.1,0.9c0-0.5,0-1.4,0-1.8
		C-137.1,2511.1-137.1,2511.5-137.1,2512.5 M-282.4,2512.5c0,0.9,0,1.3,0.1,0.8c0-0.5,0-1.2,0-1.7
		C-282.4,2511.2-282.4,2511.6-282.4,2512.5 M-142.5,2514.3c0,0.3,0,0.5,0.1,0.3c0-0.2,0-0.4,0-0.6
		C-142.4,2513.8-142.5,2514-142.5,2514.3 M-200.7,2514.4c1.8,0.1,4,0.1,4,0c0-0.1-1.1-0.1-2.4-0.1
		C-200.3,2514.3-201.1,2514.4-200.7,2514.4 M-137,2516.3c-0.1,0.3-0.1,0.5-0.1,0.5c0.1,0,0.4-0.9,0.3-0.9
		C-136.8,2515.8-136.9,2516-137,2516.3 M-282.2,2516.7c0,0.3,0,0.6,0.1,0.6s0.1-0.3,0.1-0.6c0-0.3,0-0.6-0.1-0.6
		S-282.2,2516.4-282.2,2516.7 M-137.5,2516.9c0,0.3,0.1,0.5,0.2,0.5c0.1,0,0.1-0.2,0.1-0.5C-137.4,2516.3-137.5,2516.3-137.5,2516.9
		 M-154.6,2520.7c-0.1,0.6-0.2,1.4-0.3,1.7c-0.2,0.7-0.4,2.2-0.2,1.8c0.2-0.5,0.7-3.6,0.7-4.2
		C-154.4,2519.7-154.5,2519.9-154.6,2520.7 M-265.1,2521.9c0.1,0.6,0.2,1.2,0.2,1.4c0.2,0.5,0-1.4-0.2-2.1
		C-265.1,2521-265.1,2521.3-265.1,2521.9 M-264.6,2524.2c0,0.3,0.1,0.6,0.1,0.8c0.2,0.5,0.2-0.3,0-0.9
		C-264.6,2523.7-264.6,2523.7-264.6,2524.2 M-155.4,2525.2c-0.1,0.4-0.2,0.9-0.3,1.1c-0.2,0.7-0.4,1.6-0.2,1.3
		c0.2-0.4,0.7-2.6,0.7-2.9C-155.3,2524.6-155.3,2524.8-155.4,2525.2 M-210.6,2525.3l-13.8,0.1l13.8,0c9.1,0,13.8,0,13.9-0.1
		c0.1-0.1,0.1-0.1,0.1-0.1C-196.7,2525.2-203,2525.2-210.6,2525.3 M-264.2,2526.1c0.1,0.4,0.2,0.9,0.3,1c0.2,0.3,0-0.9-0.2-1.4
		C-264.3,2525.5-264.3,2525.6-264.2,2526.1 M-263.8,2527.6c0,0.3,1.5,5,1.9,6c0.1,0.3,0.3,0.7,0.4,0.9c1,2.4,5.7,10.8,5.7,10.1
		c0-0.1-0.4-0.8-0.8-1.4c-0.5-0.7-0.8-1.3-0.8-1.3s-0.3-0.5-0.6-1c-1.6-2.4-4-8.1-5-11.3C-263.6,2527.7-263.8,2527.3-263.8,2527.6
		 M-156.2,2528.4c-0.5,1.9-1.6,5-2.7,7.2c-0.5,1-0.9,1.9-0.8,2c0.1,0.1,1.2-2.3,1.9-4c0.3-0.7,0.6-1.5,0.7-1.7
		c0.4-1,1.2-3.5,1.1-3.7C-156.1,2528-156.2,2528-156.2,2528.4 M-140.5,2528.6c-0.4,0.3-0.8,0.5-0.9,0.4c-0.1-0.1-0.2,0.1-0.3,0.2
		c-0.1,0.2-0.1,0.3,0,0.3c0.1,0,0.2-0.1,0.2-0.3c0-0.2,0-0.2,0.1-0.1c0.1,0.2,0.7-0.2,1.6-1
		C-139.4,2527.9-139.8,2528.2-140.5,2528.6 M-288.2,2529.4c0.1,0.2,0.3,0.4,0.5,0.5c0.2,0.1,0.1,0-0.1-0.3
		C-288.3,2529.1-288.4,2528.9-288.2,2529.4 M-267.3,2531.4c0.2,0.3,0.4,0.5,0.5,0.5c0.1,0-0.3-0.6-0.6-0.8
		C-267.6,2531-267.6,2531.1-267.3,2531.4 M-285.6,2532c0.2,0.2,0.5,0.5,0.8,0.6c0.7,0.4,0.5,0.2-0.4-0.5
		C-285.6,2531.9-285.8,2531.9-285.6,2532 M-270.3,2533c0,0.4,0,0.5,0.1,0.3c0-0.2,0-0.5,0-0.7
		C-270.3,2532.5-270.3,2532.7-270.3,2533 M-270.1,2534.3c0,0.3,0,0.5,0.1,0.3c0-0.2,0-0.4,0-0.6S-270.1,2534-270.1,2534.3
		 M-142.4,2534.9c0.3,0,0.8,0,1.2,0c0.3,0,0.1-0.1-0.5-0.1C-142.4,2534.8-142.7,2534.9-142.4,2534.9 M-160.1,2538
		c-0.1,0.2-0.3,0.6-0.5,0.9c-0.4,0.7-0.7,1.3-0.4,1.1c0.3-0.3,1.2-2.1,1.1-2.2C-160,2537.8-160,2537.9-160.1,2538 M-271.3,2539.1
		c0.2,0.3,0.4,0.5,0.4,0.5c0,0-0.1-0.2-0.3-0.5c-0.2-0.3-0.4-0.5-0.4-0.5C-271.7,2538.6-271.5,2538.8-271.3,2539.1 M-151.1,2539.9
		c-0.2,0.7-0.3,1.1-0.1,0.9c0.1-0.1,0.2-0.4,0.2-0.7C-150.9,2539.5-150.9,2539.5-151.1,2539.9 M-270.2,2540.6
		c0.3,0.4,0.6,0.7,0.6,0.7c0,0-0.2-0.3-0.4-0.7s-0.6-0.7-0.6-0.7C-270.7,2539.9-270.5,2540.2-270.2,2540.6 M-268.5,2540.3
		c0,0.3,0.1,0.5,0.2,0.5c0.2,0,0.2-0.3,0-0.7C-268.5,2539.9-268.5,2540-268.5,2540.3 M-149.5,2540.8c-0.3,0.4-0.5,0.7-0.4,0.7
		c0,0,0.3-0.3,0.6-0.7c0.3-0.4,0.5-0.7,0.4-0.7C-148.9,2540.1-149.2,2540.4-149.5,2540.8 M-162.5,2542.2c-1.3,2-1.6,2.7-0.6,1.3
		c0.9-1.3,1.9-3.1,1.9-3.1C-161.3,2540.3-161.8,2541.1-162.5,2542.2 M-155.8,2543.2c0,0.6,0,0.9,0.1,0.5c0-0.3,0-0.9,0-1.2
		C-155.8,2542.3-155.8,2542.6-155.8,2543.2 M-263.6,2545c0,0.5,0,0.6,0.1,0.4c0-0.3,0-0.6,0-0.8
		C-263.6,2544.4-263.6,2544.6-263.6,2545 M-156,2545.1c0,0.3,0,0.5,0.1,0.3c0-0.2,0-0.4,0-0.6C-155.9,2544.7-156,2544.8-156,2545.1
		 M-155.4,2547.4c-1.6,1.6-2.2,2.3-2,2.3c0.2,0,0.3-0.1,0.2-0.1c-0.1-0.1,0.9-1.1,2.1-2.3c1.2-1.2,2.2-2.2,2.1-2.2
		C-153.1,2545.1-154.1,2546.2-155.4,2547.4 M-262.7,2547c0.4,0.4,0.8,0.8,0.8,0.8C-261.8,2547.8-261.9,2547.6-262.7,2547l-0.7-0.8
		L-262.7,2547 M-255.6,2546.5c0,0.2,0.1,0.5,0.1,0.7c0.2,0.4,0.2,0,0-0.6C-255.6,2546.3-255.6,2546.3-255.6,2546.5 M-157.3,2547.4
		l-1.1,1.1L-157.3,2547.4c0.7-0.5,1.2-1.1,1.2-1.1C-156.2,2546.2-156.3,2546.4-157.3,2547.4 M-272.8,2547.9c0.7,0,1.8,0,2.5,0
		c0.7,0,0.1-0.1-1.3-0.1C-273,2547.8-273.5,2547.9-272.8,2547.9 M-148.4,2547.9c0.4,0,1,0,1.3,0c0.3,0,0-0.1-0.7-0.1
		C-148.5,2547.8-148.8,2547.9-148.4,2547.9 M-151.7,2548.1c-0.3,0.1-0.1,0.1,0.4,0c0.5-0.1,0.9-0.1,0.9-0.2
		C-150.2,2547.9-151.3,2548-151.7,2548.1 M-154.3,2548.6c-0.2,0.1-0.2,0.1-0.1,0.1c0.1,0,0.4-0.1,0.6-0.1c0.2-0.1,0.2-0.1,0.1-0.1
		C-153.8,2548.5-154.1,2548.5-154.3,2548.6 M-262.3,2549.4c0.1,0.2,0.3,0.4,0.4,0.4c0.2,0,0.1-0.1-0.2-0.4
		C-262.5,2548.8-262.5,2548.8-262.3,2549.4 M-146.1,2550.7l-0.7,0.6L-146.1,2550.7c0.7-0.4,0.9-0.6,0.7-0.6
		C-145.4,2550.1-145.7,2550.4-146.1,2550.7 M-256.8,2552c0.4,0.3,0.9,0.7,1.2,0.9c0.7,0.4,0.5,0.2-0.7-0.7
		C-257.1,2551.7-257.2,2551.6-256.8,2552 M-258.2,2553.3c-0.2,0.1-0.2,0.2,0.1,0.1c0.2-0.1,0.5,0,0.8,0.1c0.4,0.2,0.4,0.2,0.1-0.1
		C-257.6,2553.1-257.8,2553.1-258.2,2553.3 M-162.2,2553.4C-162.4,2553.7-162.4,2553.7-162.2,2553.4c0.2,0,0.5-0.1,0.6,0
		c0.3,0.1,0.3,0.1,0.1-0.1C-161.8,2553.1-161.9,2553.1-162.2,2553.4 M-173.3,2554.9c-1.5,1.4-5.3,4.2-6.5,4.9
		c-0.3,0.2-0.6,0.4-0.6,0.5c0.2,0.2,5.2-3.4,7.7-5.7c0.6-0.5,0.8-0.6,0.9-0.4c0.1,0.1,0.2,0.2,0.2,0c0-0.1,0-0.3,0.1-0.5
		C-171.4,2553.2-171.7,2553.5-173.3,2554.9 M-259.9,2553.8c-0.4,0.2,0,0.2,0.6,0c0.3-0.1,0.4-0.1,0.1-0.1
		C-259.4,2553.6-259.7,2553.7-259.9,2553.8 M-263.3,2554.1l-1.8,0.1l1.8,0c1,0,2,0,2.3-0.1C-260.5,2554-260.5,2554-263.3,2554.1
		 M-247.7,2554.1c0,0.2,3.4,3,5.7,4.6c1.1,0.8,2,1.5,2,1.6c0,0.1,0.1,0.2,0.4,0.2c0.6,0,0.6,0-1.5-1.4c-1.6-1.1-2.8-2-6-4.6
		C-247.4,2554.2-247.7,2554-247.7,2554.1 M-158.8,2554.1c0.4,0.1,1.4,0.2,1.3,0.1c0,0-0.4-0.1-0.9-0.2
		C-159,2554-159.1,2554-158.8,2554.1 M-154.5,2554.1l-0.8,0.1l0.7,0c0.4,0,0.8-0.1,1-0.1C-153.2,2553.9-153.4,2553.9-154.5,2554.1
		 M-167.8,2554.8c-0.3,0.3,0.2,0.5,0.6,0.2c0.3-0.2,0.3-0.2-0.1-0.1c-0.3,0.2-0.4,0.2-0.3-0.1
		C-167.5,2554.6-167.6,2554.5-167.8,2554.8 M-172.9,2557.8c-0.3,0.2-0.4,0.3-0.3,0.3c0.1,0,0.4-0.1,0.6-0.3
		C-172.1,2557.4-172.3,2557.4-172.9,2557.8 M-244.7,2558.8c0.1,0.1,0.4,0.2,0.7,0.3c0.3,0.1,0.3,0.1,0.2,0c-0.1-0.1-0.4-0.2-0.7-0.3
		C-244.8,2558.6-244.8,2558.6-244.7,2558.8 M-175.4,2558.9c-0.4,0.2-0.4,0.2-0.1,0.1c0.5-0.1,1-0.4,0.8-0.4
		C-174.8,2558.6-175.1,2558.7-175.4,2558.9 M-181,2560.5c-0.2,0.3-0.1,0.3,0.5,0.1c0.3-0.1,0.3-0.1,0.2-0.2
		C-180.7,2560.2-180.8,2560.2-181,2560.5 M-182.9,2561.6c-1.3,0.7-4.5,2.3-4.7,2.3c-0.2,0-1.3,0.5-1.2,0.6c0.2,0.2,4.1-1.6,6-2.7
		c0.5-0.3,1-0.6,1.2-0.6c0.2-0.1,0.3-0.2,0.3-0.2C-181.3,2560.7-181.2,2560.7-182.9,2561.6 M-239.6,2561.1c1.5,0.1,1.8,0.1,2.7,0.7
		c1.8,1.1,5.7,2.9,5.9,2.8c0,0-0.1-0.1-0.2-0.2c-0.6-0.2-5.4-2.6-6.1-3c-0.6-0.4-0.8-0.4-2.3-0.4l-1.6,0L-239.6,2561.1
		 M-180.4,2561.1c0.5,0,1.2,0,1.7,0c0.4,0,0-0.1-0.9-0.1C-180.5,2561-180.9,2561-180.4,2561.1 M-230.8,2564.7
		c0.1,0.1,0.4,0.2,0.7,0.3c0.6,0.1,0.3-0.1-0.4-0.3C-230.8,2564.6-230.9,2564.6-230.8,2564.7 M-190.3,2565c-1.1,0.5-3.5,1.3-4.3,1.5
		c-0.3,0.1-0.4,0.2-0.4,0.2c0.1,0.1,2.9-0.7,4.2-1.3c0.4-0.2,0.9-0.4,1.1-0.4c0.2-0.1,0.5-0.2,0.5-0.3
		C-188.9,2564.5-189.2,2564.6-190.3,2565 M-229.5,2565.2c0,0.1,1.8,0.7,4,1.3c0.9,0.3,1.5,0.4,1.3,0.2c0,0-0.7-0.2-1.4-0.4
		c-0.7-0.2-1.5-0.4-1.7-0.5C-228,2565.4-229.5,2565-229.5,2565.2 M-223.8,2566.9c0.6,0.2,2.9,0.7,3.1,0.6c0.1,0-0.1-0.1-0.4-0.2
		c-0.4-0.1-1.1-0.2-1.6-0.4C-223.7,2566.8-224.3,2566.7-223.8,2566.9 M-196.5,2567c-0.4,0.1-1.1,0.3-1.4,0.4
		c-0.5,0.1-0.6,0.2-0.3,0.2c0.3,0.1,2.9-0.5,3-0.7C-195,2566.7-195.7,2566.8-196.5,2567 M-220.1,2567.8c0.2,0.1,0.8,0.2,1.3,0.2
		c0.7,0.1,0.9,0.1,0.6,0C-218.8,2567.8-220.5,2567.6-220.1,2567.8 M-200.4,2567.8c-1.4,0.2-1.4,0.4,0,0.2c1.2-0.1,2.2-0.4,1.4-0.4
		C-199.2,2567.7-199.9,2567.7-200.4,2567.8 M-217.1,2568.3c0.4,0.1,1.1,0.1,1.6,0.1l0.9,0l-0.8-0.1c-0.5-0.1-1.2-0.1-1.6-0.1l-0.8,0
		L-217.1,2568.3 M-203.8,2568.3c-0.6,0.1-0.6,0.1,0.3,0.1c0.5,0,1.1-0.1,1.4-0.1C-201.4,2568.1-202.8,2568.1-203.8,2568.3
		 M-211.6,2568.6c1.3,0,3.3,0,4.5,0c1.2,0,0.2-0.1-2.3-0.1C-211.9,2568.5-212.9,2568.5-211.6,2568.6"/>
	<path id="path4" class="st3" d="M-257.3,2436.1c-1.8,0.2-4.6,1.8-6,3.4c-1,1.1-2.6,3.6-2.3,3.6c0.1,0,0.3-0.3,0.5-0.7
		c1.1-2.1,3.1-4.1,5.5-5.3c1.7-0.8,5.3-1.2,5.3-0.5c0,0.6-1.8,4.7-2.3,5.2c0,0-0.3,0.4-0.5,0.8c-1.2,1.8-5.9,5.3-7.3,5.3
		c-0.1,0-0.2,0.1-0.2,0.2c0,0.7,5-2.3,6.5-3.9c1.4-1.5,2.3-3,3.8-6.3C-253.6,2435.9-253.9,2435.7-257.3,2436.1 M-165.2,2436.1
		c-0.3,0.2-0.3,0.5,0.1,1.2c0.1,0.2,0.3,0.7,0.5,1.2c2,4.7,3.9,6.7,8.7,9.1c1,0.5,1.8,0.9,1.8,1c0.1,0.1,0.1,0.1,0.2,0
		c0.1-0.2-0.9-0.9-1.2-0.9c-0.2,0-2.6-1.3-3.6-1.9c-1.3-0.8-2.9-2.4-3.7-3.7c-1-1.6-2.4-4.4-2.6-5.4l-0.1-0.5l2,0.1
		c1.1,0,2.1,0.2,2.3,0.3c0.2,0.1,0.6,0.3,1,0.5c1.9,0.9,4.2,3,5.2,4.7c0.5,0.9,0.8,1.1,0.7,0.5c0-0.3-0.1-0.4-0.1-0.3
		c0,0.1-0.4-0.2-0.7-0.8c-1.4-2.1-3.4-3.8-5.6-4.7C-161.8,2436.1-164.7,2435.8-165.2,2436.1 M-262.5,2441.1
		c-0.2,0.2-0.3,0.4-0.2,0.5c0.3,0.1,0.7-0.4,0.6-0.7C-262.1,2440.8-262.2,2440.9-262.5,2441.1 M-157.5,2441.1
		c0.1,0.2,0.3,0.4,0.5,0.5c0.4,0.2,0.2-0.4-0.2-0.7C-157.6,2440.7-157.7,2440.8-157.5,2441.1 M-265.5,2448.3
		c-0.2,0.1-0.4,0.2-0.3,0.2c0.1,0.1,1-0.2,1-0.3C-264.8,2448.1-265,2448.1-265.5,2448.3 M-255.6,2544.2c-0.3,0.2-0.3,0.2,0.3,0.1
		c0.6-0.1,1.4,0.5,3.1,2.5c1.4,1.6,3.9,5.6,3.9,6.2c0,0.1,0.2,0.4,0.3,0.6c0.6,0.7-0.5-1.6-1.5-3.2
		C-251.8,2546.5-254.7,2543.5-255.6,2544.2 M-164.8,2544.1c-0.7,0.3-3.6,3.6-4.8,5.5c-0.7,1.1-2.1,3.9-1.9,3.8
		c0.1-0.1,0.4-0.6,0.8-1.3c1.8-3.6,5.3-7.8,6.6-7.8c0.5,0,0.5,0,0.3-0.2C-164.3,2543.9-164.3,2543.9-164.8,2544.1 M-238.8,2560.7
		c0.6,0.3,0.8,0.3,0.4,0c-0.2-0.1-0.4-0.2-0.6-0.2C-239.1,2560.4-239,2560.6-238.8,2560.7"/>
</g>
<text transform="matrix(1 0 0 1 -113 2470.2236)"><tspan x="0" y="0" class="st4 st5 st6">SCHOOL </tspan><tspan x="0" y="44.4" class="st4 st5 st6">OF</tspan><tspan x="0" y="88.8" class="st4 st5 st6">STUDIES</tspan></text>
</svg>
